<svg width="10" height="15" viewBox="0 0 10 15" fill="none" xmlns="http://www.w3.org/2000/svg">
<path d="M0.566381 2.05054V0.616267C0.566381 0.491951 0.709253 0.423298 0.805737 0.499372L9.17019 7.03248C9.24126 7.08775 9.29876 7.15851 9.33832 7.23939C9.37787 7.32026 9.39844 7.4091 9.39844 7.49913C9.39844 7.58916 9.37787 7.678 9.33832 7.75887C9.29876 7.83974 9.24126 7.91051 9.17019 7.96578L0.805737 14.4989C0.707397 14.575 0.566381 14.5063 0.566381 14.382V12.9477C0.566381 12.8568 0.609057 12.7696 0.679564 12.7139L7.35925 7.50006L0.679564 2.28433C0.609057 2.22867 0.566381 2.14146 0.566381 2.05054Z" fill="#171717"/>
</svg>
