<svg width="141" height="34" viewBox="0 0 141 34" fill="none" xmlns="http://www.w3.org/2000/svg">
<path d="M1.65039 15V0.78125H5.66406C6.90104 0.78125 7.99479 1.05469 8.94531 1.60156C9.89583 2.14844 10.6283 2.92643 11.1426 3.93555C11.6634 4.94466 11.9271 6.10352 11.9336 7.41211V8.32031C11.9336 9.66146 11.6732 10.8366 11.1523 11.8457C10.638 12.8548 9.89909 13.6296 8.93555 14.1699C7.97852 14.7103 6.86198 14.987 5.58594 15H1.65039ZM3.52539 2.32422V13.4668H5.49805C6.94336 13.4668 8.06641 13.0176 8.86719 12.1191C9.67448 11.2207 10.0781 9.94141 10.0781 8.28125V7.45117C10.0781 5.83659 9.69727 4.58333 8.93555 3.69141C8.18034 2.79297 7.10612 2.33724 5.71289 2.32422H3.52539ZM22.8125 8.42773H16.6504V13.4668H23.8086V15H14.7754V0.78125H23.7109V2.32422H16.6504V6.89453H22.8125V8.42773ZM28.0273 13.4668H34.7656V15H26.1426V0.78125H28.0273V13.4668ZM46.3867 0.78125V10.4492C46.3802 11.7904 45.957 12.8874 45.1172 13.7402C44.2839 14.5931 43.151 15.0716 41.7188 15.1758L41.2207 15.1953C39.6647 15.1953 38.4245 14.7754 37.5 13.9355C36.5755 13.0957 36.1068 11.9401 36.0938 10.4688V0.78125H37.9492V10.4102C37.9492 11.4388 38.2324 12.2396 38.7988 12.8125C39.3652 13.3789 40.1725 13.6621 41.2207 13.6621C42.2819 13.6621 43.0924 13.3789 43.6523 12.8125C44.2188 12.2461 44.502 11.4486 44.502 10.4199V0.78125H46.3867ZM53.9844 6.23047L57.3926 0.78125H59.5996L55.1074 7.83203L59.707 15H57.4805L53.9844 9.45312L50.4688 15H48.252L52.8613 7.83203L48.3594 0.78125H50.5566L53.9844 6.23047ZM69.9219 8.42773H63.7598V13.4668H70.918V15H61.8848V0.78125H70.8203V2.32422H63.7598V6.89453H69.9219V8.42773ZM89.1406 15H87.2559V8.42773H80.0879V15H78.2129V0.78125H80.0879V6.89453H87.2559V0.78125H89.1406V15ZM103.408 8.34961C103.408 9.74284 103.174 10.9603 102.705 12.002C102.236 13.0371 101.572 13.8281 100.713 14.375C99.8535 14.9219 98.8509 15.1953 97.7051 15.1953C96.5853 15.1953 95.5924 14.9219 94.7266 14.375C93.8607 13.8216 93.1868 13.0371 92.7051 12.0215C92.2298 10.9993 91.9857 9.81771 91.9727 8.47656V7.45117C91.9727 6.08398 92.2103 4.8763 92.6855 3.82812C93.1608 2.77995 93.8314 1.97917 94.6973 1.42578C95.5697 0.865885 96.5658 0.585938 97.6855 0.585938C98.8249 0.585938 99.8275 0.86263 100.693 1.41602C101.566 1.96289 102.236 2.76042 102.705 3.80859C103.174 4.85026 103.408 6.06445 103.408 7.45117V8.34961ZM101.543 7.43164C101.543 5.74544 101.204 4.45312 100.527 3.55469C99.8503 2.64974 98.903 2.19727 97.6855 2.19727C96.5007 2.19727 95.5664 2.64974 94.8828 3.55469C94.2057 4.45312 93.8574 5.70312 93.8379 7.30469V8.34961C93.8379 9.98372 94.1797 11.2695 94.8633 12.207C95.5534 13.138 96.5007 13.6035 97.7051 13.6035C98.916 13.6035 99.8535 13.1641 100.518 12.2852C101.182 11.3997 101.523 10.1335 101.543 8.48633V7.43164ZM116.23 0.78125V10.4492C116.224 11.7904 115.801 12.8874 114.961 13.7402C114.128 14.5931 112.995 15.0716 111.562 15.1758L111.064 15.1953C109.508 15.1953 108.268 14.7754 107.344 13.9355C106.419 13.0957 105.951 11.9401 105.938 10.4688V0.78125H107.793V10.4102C107.793 11.4388 108.076 12.2396 108.643 12.8125C109.209 13.3789 110.016 13.6621 111.064 13.6621C112.126 13.6621 112.936 13.3789 113.496 12.8125C114.062 12.2461 114.346 11.4486 114.346 10.4199V0.78125H116.23ZM123.379 8.66211C121.771 8.19987 120.599 7.63346 119.863 6.96289C119.134 6.28581 118.77 5.45247 118.77 4.46289C118.77 3.3431 119.215 2.41862 120.107 1.68945C121.006 0.953776 122.171 0.585938 123.604 0.585938C124.58 0.585938 125.449 0.77474 126.211 1.15234C126.979 1.52995 127.572 2.05078 127.988 2.71484C128.411 3.37891 128.623 4.10482 128.623 4.89258H126.738C126.738 4.0332 126.465 3.35938 125.918 2.87109C125.371 2.3763 124.6 2.12891 123.604 2.12891C122.679 2.12891 121.956 2.33398 121.436 2.74414C120.921 3.14779 120.664 3.71094 120.664 4.43359C120.664 5.01302 120.908 5.50456 121.396 5.9082C121.891 6.30534 122.728 6.66992 123.906 7.00195C125.091 7.33398 126.016 7.70182 126.68 8.10547C127.35 8.5026 127.845 8.9681 128.164 9.50195C128.49 10.0358 128.652 10.6641 128.652 11.3867C128.652 12.5391 128.203 13.4635 127.305 14.1602C126.406 14.8503 125.205 15.1953 123.701 15.1953C122.725 15.1953 121.813 15.0098 120.967 14.6387C120.12 14.2611 119.466 13.7467 119.004 13.0957C118.548 12.4447 118.32 11.7057 118.32 10.8789H120.205C120.205 11.7383 120.521 12.4186 121.152 12.9199C121.79 13.4147 122.64 13.6621 123.701 13.6621C124.691 13.6621 125.449 13.4603 125.977 13.0566C126.504 12.653 126.768 12.1029 126.768 11.4062C126.768 10.7096 126.523 10.1725 126.035 9.79492C125.547 9.41081 124.661 9.0332 123.379 8.66211ZM139.102 8.42773H132.939V13.4668H140.098V15H131.064V0.78125H140V2.32422H132.939V6.89453H139.102V8.42773ZM0.649414 27.2402C0.649414 26.1055 0.918294 25.194 1.45605 24.5059C1.99382 23.8132 2.69792 23.4668 3.56836 23.4668C4.43424 23.4668 5.12012 23.763 5.62598 24.3555V20.5H6.89062V31H5.72852L5.66699 30.207C5.16113 30.8268 4.45703 31.1367 3.55469 31.1367C2.69792 31.1367 1.99837 30.7858 1.45605 30.084C0.918294 29.3822 0.649414 28.4661 0.649414 27.3359V27.2402ZM1.91406 27.3838C1.91406 28.2223 2.08724 28.8786 2.43359 29.3525C2.77995 29.8265 3.25846 30.0635 3.86914 30.0635C4.67122 30.0635 5.25684 29.7035 5.62598 28.9834V25.5859C5.24772 24.8887 4.66667 24.54 3.88281 24.54C3.26302 24.54 2.77995 24.7793 2.43359 25.2578C2.08724 25.7363 1.91406 26.445 1.91406 27.3838ZM11.9287 31.1367C10.9261 31.1367 10.1104 30.8086 9.48145 30.1523C8.85254 29.4915 8.53809 28.6097 8.53809 27.5068V27.2744C8.53809 26.5407 8.67708 25.8867 8.95508 25.3125C9.23763 24.7337 9.62956 24.2826 10.1309 23.959C10.6367 23.6309 11.1836 23.4668 11.7715 23.4668C12.7331 23.4668 13.4805 23.7835 14.0137 24.417C14.5469 25.0505 14.8135 25.9574 14.8135 27.1377V27.6641H9.80273C9.82096 28.3932 10.0329 28.9834 10.4385 29.4346C10.8486 29.8812 11.3682 30.1045 11.9971 30.1045C12.4437 30.1045 12.8219 30.0133 13.1318 29.8311C13.4417 29.6488 13.7129 29.4072 13.9453 29.1064L14.7178 29.708C14.098 30.6605 13.1683 31.1367 11.9287 31.1367ZM11.7715 24.5059C11.2611 24.5059 10.8327 24.6927 10.4863 25.0664C10.14 25.4355 9.92578 25.9551 9.84375 26.625H13.5488V26.5293C13.5124 25.8867 13.3392 25.39 13.0293 25.0391C12.7194 24.6836 12.3001 24.5059 11.7715 24.5059ZM20.5898 29.0381C20.5898 28.6963 20.46 28.432 20.2002 28.2451C19.945 28.0537 19.4961 27.8896 18.8535 27.7529C18.2155 27.6162 17.7074 27.4521 17.3291 27.2607C16.9554 27.0693 16.6774 26.8415 16.4951 26.5771C16.3174 26.3128 16.2285 25.9984 16.2285 25.6338C16.2285 25.0277 16.4837 24.515 16.9941 24.0957C17.5091 23.6764 18.1654 23.4668 18.9629 23.4668C19.8014 23.4668 20.4805 23.6833 21 24.1162C21.5241 24.5492 21.7861 25.1029 21.7861 25.7773H20.5146C20.5146 25.431 20.3665 25.1325 20.0703 24.8818C19.7786 24.6312 19.4095 24.5059 18.9629 24.5059C18.5026 24.5059 18.1426 24.6061 17.8828 24.8066C17.623 25.0072 17.4932 25.2692 17.4932 25.5928C17.4932 25.8981 17.6139 26.1283 17.8555 26.2832C18.097 26.4382 18.5322 26.5863 19.1611 26.7275C19.7946 26.8688 20.3073 27.0374 20.6992 27.2334C21.0911 27.4294 21.3805 27.6663 21.5674 27.9443C21.7588 28.2178 21.8545 28.5527 21.8545 28.9492C21.8545 29.61 21.5902 30.141 21.0615 30.542C20.5329 30.9385 19.847 31.1367 19.0039 31.1367C18.4115 31.1367 17.8874 31.0319 17.4316 30.8223C16.9759 30.6126 16.6182 30.321 16.3584 29.9473C16.1032 29.569 15.9756 29.1611 15.9756 28.7236H17.2402C17.263 29.1475 17.4316 29.4847 17.7461 29.7354C18.0651 29.9814 18.4844 30.1045 19.0039 30.1045C19.4824 30.1045 19.8652 30.0088 20.1523 29.8174C20.444 29.6214 20.5898 29.3617 20.5898 29.0381ZM24.876 31H23.6113V23.6035H24.876V31ZM23.5088 21.6416C23.5088 21.4365 23.5703 21.2633 23.6934 21.1221C23.821 20.9808 24.0078 20.9102 24.2539 20.9102C24.5 20.9102 24.6868 20.9808 24.8145 21.1221C24.9421 21.2633 25.0059 21.4365 25.0059 21.6416C25.0059 21.8467 24.9421 22.0176 24.8145 22.1543C24.6868 22.291 24.5 22.3594 24.2539 22.3594C24.0078 22.3594 23.821 22.291 23.6934 22.1543C23.5703 22.0176 23.5088 21.8467 23.5088 21.6416ZM26.6055 27.2402C26.6055 26.0872 26.8721 25.1712 27.4053 24.4922C27.9385 23.8086 28.6449 23.4668 29.5244 23.4668C30.4268 23.4668 31.1309 23.7858 31.6367 24.4238L31.6982 23.6035H32.8535V30.8223C32.8535 31.7793 32.5687 32.5335 31.999 33.085C31.4339 33.6364 30.6729 33.9121 29.7158 33.9121C29.1826 33.9121 28.6608 33.7982 28.1504 33.5703C27.64 33.3424 27.2503 33.0303 26.9814 32.6338L27.6377 31.875C28.18 32.5449 28.8431 32.8799 29.627 32.8799C30.2422 32.8799 30.7207 32.7067 31.0625 32.3604C31.4089 32.014 31.582 31.5264 31.582 30.8975V30.2617C31.0762 30.8451 30.3857 31.1367 29.5107 31.1367C28.6449 31.1367 27.943 30.7881 27.4053 30.0908C26.8721 29.3936 26.6055 28.4434 26.6055 27.2402ZM27.877 27.3838C27.877 28.2178 28.0479 28.874 28.3896 29.3525C28.7314 29.8265 29.21 30.0635 29.8252 30.0635C30.6227 30.0635 31.2083 29.7012 31.582 28.9766V25.5996C31.1947 24.8932 30.6136 24.54 29.8389 24.54C29.2236 24.54 28.7428 24.7793 28.3965 25.2578C28.0501 25.7363 27.877 26.445 27.877 27.3838ZM35.9639 23.6035L36.0049 24.5332C36.57 23.8223 37.3083 23.4668 38.2197 23.4668C39.7829 23.4668 40.5713 24.3486 40.585 26.1123V31H39.3203V26.1055C39.3158 25.5723 39.1927 25.1781 38.9512 24.9229C38.7142 24.6676 38.3428 24.54 37.8369 24.54C37.4268 24.54 37.0667 24.6494 36.7568 24.8682C36.4469 25.0869 36.2054 25.374 36.0322 25.7295V31H34.7676V23.6035H35.9639ZM50.2715 29.0381C50.2715 28.6963 50.1416 28.432 49.8818 28.2451C49.6266 28.0537 49.1777 27.8896 48.5352 27.7529C47.8971 27.6162 47.389 27.4521 47.0107 27.2607C46.637 27.0693 46.359 26.8415 46.1768 26.5771C45.999 26.3128 45.9102 25.9984 45.9102 25.6338C45.9102 25.0277 46.1654 24.515 46.6758 24.0957C47.1908 23.6764 47.847 23.4668 48.6445 23.4668C49.4831 23.4668 50.1621 23.6833 50.6816 24.1162C51.2057 24.5492 51.4678 25.1029 51.4678 25.7773H50.1963C50.1963 25.431 50.0482 25.1325 49.752 24.8818C49.4603 24.6312 49.0911 24.5059 48.6445 24.5059C48.1842 24.5059 47.8242 24.6061 47.5645 24.8066C47.3047 25.0072 47.1748 25.2692 47.1748 25.5928C47.1748 25.8981 47.2956 26.1283 47.5371 26.2832C47.7786 26.4382 48.2139 26.5863 48.8428 26.7275C49.4762 26.8688 49.9889 27.0374 50.3809 27.2334C50.7728 27.4294 51.0622 27.6663 51.249 27.9443C51.4404 28.2178 51.5361 28.5527 51.5361 28.9492C51.5361 29.61 51.2718 30.141 50.7432 30.542C50.2145 30.9385 49.5286 31.1367 48.6855 31.1367C48.0931 31.1367 47.569 31.0319 47.1133 30.8223C46.6576 30.6126 46.2998 30.321 46.04 29.9473C45.7848 29.569 45.6572 29.1611 45.6572 28.7236H46.9219C46.9447 29.1475 47.1133 29.4847 47.4277 29.7354C47.7467 29.9814 48.166 30.1045 48.6855 30.1045C49.1641 30.1045 49.5469 30.0088 49.834 29.8174C50.1257 29.6214 50.2715 29.3617 50.2715 29.0381ZM54.8994 21.8125V23.6035H56.2803V24.5811H54.8994V29.168C54.8994 29.4642 54.9609 29.6875 55.084 29.8379C55.207 29.9837 55.4167 30.0566 55.7129 30.0566C55.8587 30.0566 56.0592 30.0293 56.3145 29.9746V31C55.9818 31.0911 55.6582 31.1367 55.3438 31.1367C54.7786 31.1367 54.3525 30.9658 54.0654 30.624C53.7783 30.2822 53.6348 29.7969 53.6348 29.168V24.5811H52.2881V23.6035H53.6348V21.8125H54.8994ZM62.3301 30.2686C61.8379 30.8473 61.1156 31.1367 60.1631 31.1367C59.3747 31.1367 58.7731 30.9089 58.3584 30.4531C57.9482 29.9928 57.7409 29.3138 57.7363 28.416V23.6035H59.001V28.3818C59.001 29.5029 59.4567 30.0635 60.3682 30.0635C61.3343 30.0635 61.9769 29.7035 62.2959 28.9834V23.6035H63.5605V31H62.3574L62.3301 30.2686ZM65.1807 27.2402C65.1807 26.1055 65.4495 25.194 65.9873 24.5059C66.5251 23.8132 67.2292 23.4668 68.0996 23.4668C68.9655 23.4668 69.6514 23.763 70.1572 24.3555V20.5H71.4219V31H70.2598L70.1982 30.207C69.6924 30.8268 68.9883 31.1367 68.0859 31.1367C67.2292 31.1367 66.5296 30.7858 65.9873 30.084C65.4495 29.3822 65.1807 28.4661 65.1807 27.3359V27.2402ZM66.4453 27.3838C66.4453 28.2223 66.6185 28.8786 66.9648 29.3525C67.3112 29.8265 67.7897 30.0635 68.4004 30.0635C69.2025 30.0635 69.7881 29.7035 70.1572 28.9834V25.5859C69.779 24.8887 69.1979 24.54 68.4141 24.54C67.7943 24.54 67.3112 24.7793 66.9648 25.2578C66.6185 25.7363 66.4453 26.445 66.4453 27.3838ZM74.7646 31H73.5V23.6035H74.7646V31ZM73.3975 21.6416C73.3975 21.4365 73.459 21.2633 73.582 21.1221C73.7096 20.9808 73.8965 20.9102 74.1426 20.9102C74.3887 20.9102 74.5755 20.9808 74.7031 21.1221C74.8307 21.2633 74.8945 21.4365 74.8945 21.6416C74.8945 21.8467 74.8307 22.0176 74.7031 22.1543C74.5755 22.291 74.3887 22.3594 74.1426 22.3594C73.8965 22.3594 73.7096 22.291 73.582 22.1543C73.459 22.0176 73.3975 21.8467 73.3975 21.6416ZM76.46 27.2334C76.46 26.5088 76.6012 25.8571 76.8838 25.2783C77.1709 24.6995 77.5674 24.2529 78.0732 23.9385C78.5837 23.624 79.1647 23.4668 79.8164 23.4668C80.8236 23.4668 81.637 23.8154 82.2568 24.5127C82.8812 25.21 83.1934 26.1374 83.1934 27.2949V27.3838C83.1934 28.1038 83.0544 28.751 82.7764 29.3252C82.5029 29.8949 82.1087 30.3392 81.5938 30.6582C81.0833 30.9772 80.4954 31.1367 79.8301 31.1367C78.8275 31.1367 78.014 30.7881 77.3896 30.0908C76.7699 29.3936 76.46 28.4707 76.46 27.3223V27.2334ZM77.7314 27.3838C77.7314 28.2041 77.9206 28.8626 78.2988 29.3594C78.6816 29.8561 79.1921 30.1045 79.8301 30.1045C80.4727 30.1045 80.9831 29.8538 81.3613 29.3525C81.7396 28.8467 81.9287 28.1403 81.9287 27.2334C81.9287 26.4222 81.735 25.766 81.3477 25.2646C80.9648 24.7588 80.4544 24.5059 79.8164 24.5059C79.1921 24.5059 78.6885 24.7542 78.3057 25.251C77.9229 25.7477 77.7314 26.4587 77.7314 27.3838Z" fill="url(#paint0_linear_222_18)"/>
<defs>
<linearGradient id="paint0_linear_222_18" x1="59.859" y1="-3.00002" x2="98.2625" y2="31.8247" gradientUnits="userSpaceOnUse">
<stop stop-color="#E0DEDE"/>
<stop offset="0.983598" stop-color="#A2A0A0"/>
</linearGradient>
</defs>
</svg>
